<svg width="190" height="188" viewBox="0 0 190 188" fill="none" xmlns="http://www.w3.org/2000/svg">
<path d="M79.5801 124.831C79.5801 122.469 81.9388 120.807 84.2094 121.569L108.648 129.771C110.065 130.247 111.018 131.559 111.018 133.033V174.825C111.018 176.229 110.152 177.493 108.83 178.019L84.3918 187.746C82.091 188.661 79.5801 186.994 79.5801 184.551V124.831Z" fill="#FA541C"/>
<path fill-rule="evenodd" clip-rule="evenodd" d="M189.614 94.4359C189.614 131.293 168.528 163.219 137.774 178.777C132.092 181.651 126.08 183.967 119.809 185.652V117.435C119.809 103.952 108.894 93.0228 95.4285 93.0228C81.9635 93.0228 71.0476 103.952 71.0476 117.435V185.721C64.7793 184.055 58.7673 181.76 53.083 178.906C22.1898 163.396 0.984863 131.396 0.984863 94.4359C0.984863 42.2806 43.2114 0 95.3001 0C147.389 0 189.614 42.2806 189.614 94.4359ZM171.649 94.4359C171.649 120.904 158.207 144.253 137.774 157.978V117.435C137.774 94.018 118.815 75.0349 95.4285 75.0349C86.3282 75.0349 77.8985 77.9092 70.9953 82.8005V21.9429C78.6298 19.3778 86.8028 17.9879 95.3001 17.9879C137.467 17.9879 171.649 52.2146 171.649 94.4359ZM53.1582 30.6778C32.5424 44.3665 18.9499 67.8117 18.9499 94.4359C18.9499 121.014 32.5046 144.448 53.083 158.149V117.435C53.083 116.579 53.1083 115.729 53.1582 114.886V30.6778Z" fill="#161C24"/>
</svg>
